Patient4_TMGait_0pt8_01_left_28_EMG.mot
version=1
nRows=27
nColumns=33
inDegrees=no
endheader
time	1LAddLong	2LGlutMax	3LGlutMed	4LIliopsoas	5LSemiMemb	6LBicFemLong	7LRecFem	8LVastMed	9LVastLat	10LGasMed	11LTibAnt	12lTibPost	13LPeroneusLong	14LSol	15LExtDigLong	16LFlexDigLong	17RAddLong	18RGlutMax	19RGlutMed	20RIliopsoas	21RSemiMemb	22RBicFemLong	23RRecFem	24RVastMed	25RVastLat	26RGasMed	27RTibAnt	28RTibPost	29RPeroneusLong	30RSol	31RExtDigLong	32RFlexDigLong
31.51	0.031738	0.21942	0.52246	0.011597	0.049286	-0.085602	-0.2092	-0.00351	-0.024109	-0.1326	0.012512	0.22766	-0.050049	1.0562	-0.036163	-0.091248	0.039063	-0.37796	-0.20935	-0.043182	0.21057	0.13077	-0.12741	-1.3737	-0.67169	0.001221	-0.7077	-0.015717	1.562	-0.19318	0.00061	-0.002747
31.511	0.024414	0.21316	0.54825	-0.00885	0.077972	-0.055542	-0.19882	0.003204	-0.060272	-0.038452	0.017548	-0.25589	-0.040131	0.36972	-0.08606	-0.085754	-0.10895	-0.45456	-0.19486	-0.15762	0.33569	0.46814	-0.81146	-0.66803	-0.1593	-0.009766	-0.84228	-0.011902	0.51224	-0.085144	0.000305	-0.005341
31.512	0.019379	0.26016	0.53696	-0.018158	0.062103	0.042419	-0.19486	0.003662	-0.07019	0.03891	0.015259	-0.13626	0.036774	0.10971	-0.068054	0.060577	-0.19547	-0.44266	-0.2034	-0.21088	0.71899	0.495	-0.74356	0.76691	-0.005188	-0.010681	-0.62882	-0.007782	-0.35126	0.033569	-0.002441	-0.002289
31.513	0.010376	0.25772	0.5069	-0.012817	0.041504	0.11368	-0.20065	0.00473	-0.056458	0.068512	0.006409	0.061188	-0.003967	0.41321	-0.030975	0.012817	-0.21652	-0.32593	-0.16007	-0.31403	0.77301	0.46982	-0.31418	0.88303	-0.032654	-0.016022	-0.43655	-0.01358	0.31815	0.22736	-0.010834	-0.001984
31.514	0.014038	0.20889	0.50415	-0.012817	0.039368	0.099182	-0.20676	0.000916	-0.052643	0.14404	0.031128	-0.013428	-0.000763	0.51666	-0.039368	0.027618	-0.20538	-0.24567	-0.26611	-0.11475	0.53513	0.58121	-0.071716	0.43259	0.021973	-0.014343	-0.11643	-0.00885	0.41534	0.28275	-0.002441	-0.010681
31.515	0.007629	0.14633	0.47165	-0.006104	0.023499	0.020905	-0.22827	0.002747	-0.054626	0.17532	0.020599	-0.037537	0.10819	0.56732	0.06012	0.002747	-0.17761	-0.22354	-0.22324	0.22018	0.81818	0.55801	-0.006866	-0.016937	0.13702	0.003815	0.354	-0.008087	0.55161	0.17166	-0.000305	0.00061
31.516	0.00824	0.21866	0.45319	0.01236	0.028687	-0.015106	-0.23911	-0.00473	-0.054932	0.066071	0.024261	0.048218	0.13504	-0.085144	0.059662	0.010529	-0.16586	-0.13275	1.2144	0.31143	0.72098	0.50217	-0.35446	-0.42893	0.20737	0.016022	0.46249	-0.006409	0.34439	0.06485	0.001526	-0.015564
31.517	0.015869	0.23666	0.44235	0.00946	0.009155	-0.050507	-0.26474	-0.009003	-0.032043	0.036011	0.059967	0.010071	0.079956	-0.74539	-0.015259	0.13565	-0.16037	-0.026093	1.2497	0.19424	0.62485	0.46921	-0.57831	-0.63202	0.17044	0.019989	0.34317	-0.005493	0.39734	-0.015106	0.001526	-0.014038
31.518	0.021057	0.19363	0.40939	0.033264	-0.00351	-0.068817	-0.26077	-0.003204	-0.03479	0.017853	0.1268	-0.012054	0.010223	-0.93918	0.2887	0.070801	-0.1445	-0.19898	1.0085	-0.063782	0.57129	0.62225	-1.0431	-0.62851	0.25162	0.008698	-0.29755	-0.011444	0.49057	0.063019	-0.001984	-0.012817
31.519	0.018616	0.12039	0.42007	0.047302	-0.019073	-0.10346	-0.22903	-0.003662	-0.07309	0.028534	0.23468	-0.022125	0.003967	-0.4187	0.61676	0.002594	-0.10544	-0.27435	1.0054	-0.081024	0.55237	0.58533	-1.4725	-0.49454	0.49439	-0.007935	-0.58563	-0.016937	0.2565	0.1442	-0.000458	-0.019226
31.52	0.013275	0.1001	0.41809	0.032043	-0.006256	-0.14801	-0.22247	0.014191	-0.078735	0.024414	-0.00412	-0.023346	0.045624	0.005341	0.23666	0.011749	-0.10269	-0.18967	0.62607	-0.082245	0.54077	0.42587	-1.2804	-0.63751	0.58533	-0.019989	-0.22278	-0.015717	0.13992	0.14969	-0.000458	-0.015717
31.521	0.009766	0.10849	0.41779	0.032959	-0.044861	-0.17227	-0.19867	0.001526	-0.081787	-0.055847	0.017853	-0.020905	0.23636	0.2713	-0.015411	0.009613	-0.059509	0.018616	0.42023	-0.083466	0.46539	0.24841	-1.0518	-0.6694	0.3624	-0.010376	0.14496	-0.013885	-0.034027	0.18082	-0.003204	-0.000916
31.522	0.004883	0.11795	0.40146	0.037689	-0.028229	-0.2066	-0.20172	-0.002899	-0.077209	-0.087128	-0.040436	-0.020752	0.21286	0.39307	0.73029	0.013733	-0.059052	0.27725	-0.25085	0.004883	0.44922	0.16724	-0.94925	-0.34576	0.043335	-0.016937	0.19058	-0.005188	-0.059509	0.14755	-0.00473	-0.011139
31.523	0.018768	0.11993	0.37842	0.012512	0.083771	0.0177	-0.19196	-0.00061	-0.10239	0.009308	0.049896	-0.010834	-0.11643	0.31677	1.3391	-0.002594	-0.034943	0.4631	0.078888	0.061493	0.36728	0.25665	-0.7901	-0.18738	-0.068054	-0.035858	0.087585	-0.000153	0.14496	0.095673	0.000763	-0.004425
31.524	0.033569	0.13367	0.37399	-0.00473	0.11704	0.19119	-0.24353	0.003052	-0.081482	0.018921	0.048981	-0.021057	-0.18936	0.29388	-0.54993	0.003815	-0.007629	0.4332	0.53986	0.04364	0.36957	0.45654	-0.66299	-0.045929	-0.076294	-0.035248	-0.070496	-0.012817	0.11551	0.14603	0.00061	-0.007324
31.525	0.016937	0.12695	0.35187	0.001678	0.054169	0.16846	-0.23941	0.001373	-0.073547	-0.018768	0.015717	-0.019379	-0.04425	0.35812	-1.4041	0.006561	0.020447	0.38757	0.25345	0.010834	0.52887	0.46906	-0.50873	0.26474	-0.069427	0.003357	-0.1561	-0.011444	-0.21652	0.019073	-0.002747	-0.012817
31.526	0.019836	0.12909	0.3569	0.000305	0.042114	0.041351	-0.2594	-0.004883	-0.078125	-0.037231	-0.086365	-0.014496	0.042877	0.41336	-0.9697	0.023041	0.097198	0.33081	-0.34821	0.020599	0.44708	0.31403	-0.3537	0.93781	-0.10986	0.005798	-0.078583	-0.013885	-0.45548	-0.10666	-0.001831	-0.000763
31.527	0.016937	0.15076	0.35019	-0.015106	0.039215	-0.004425	-0.22812	-0.003662	-0.073853	-0.00885	-0.21408	-0.010376	0.08255	0.21011	-1.0298	0.001373	0.13947	0.093079	-0.9816	-0.001984	0.34088	0.31113	-0.056305	0.89752	-0.46158	0.003204	0.058594	-0.025635	-0.56244	-0.2388	-0.008087	-0.002747
31.528	0.018768	0.14572	0.36972	-0.011749	0.024872	-0.005646	-0.24704	-0.006561	-0.072632	0.012817	-0.11017	-0.011292	0.079651	0.095062	-1.4342	-0.002594	0.12405	-0.050354	-1.0295	-0.06546	0.24277	0.38864	0.1648	0.58151	-0.63248	-0.015717	0.067444	-0.039215	-0.20126	-0.16022	-0.000305	-0.009003
31.529	0.009766	0.080566	0.36987	-0.007019	0.027771	-0.04776	-0.24445	-0.005035	-0.060883	0.052795	-0.059357	-0.009308	-0.011444	0.087891	-1.0309	0.004272	0.092468	-0.1181	-1.0139	-0.089569	0.25452	0.41245	0.22537	0.77393	-0.36346	-0.023499	-0.032501	-0.023499	0.61233	0.2034	0.00061	-0.002899
31.53	0.019989	0.057983	0.35629	0.002289	0.005188	-0.022278	-0.25772	-0.006256	-0.045624	0.074158	0.011597	-0.010223	-0.053101	-0.1651	-0.36499	0.010986	0.048218	-0.14603	-0.49362	-0.12772	0.62057	0.5719	0.19394	0.88211	-0.011902	-0.030212	-0.29785	0.004883	0.50507	0.70419	-0.007324	-0.004272
31.531	0.016174	0.024261	0.34149	0.002747	-0.061951	0.007629	-0.26535	-0.003967	-0.052338	0.039978	-0.086212	-0.005646	-0.054932	-0.14801	0.28748	0.031891	-0.011139	-0.31403	0.40207	-0.002441	0.26276	0.50659	0.078735	0.99335	0.048523	-0.016785	-0.26337	-0.002594	0.18066	0.69946	0	-0.013123
31.532	0.023193	-0.017242	0.31433	-0.001221	-0.078583	0.008698	-0.27832	-0.006104	-0.05722	0.05722	-0.078278	-0.013885	-0.045166	-0.09552	0.47226	0.012512	-0.00061	-0.25681	-0.50446	0.30838	0.15366	0.22705	0.089264	0.61722	-0.03006	0.000763	0.27603	0.03418	0.10529	0.026703	0.000458	-0.00061
31.533	0.020294	0.014343	0.29877	-0.010223	0.034485	0.005188	-0.28778	-0.007324	-0.045013	0.065765	-0.067596	-0.54214	-0.017548	-0.085449	0.3772	0.020599	0.048981	-0.070038	-0.38834	0.31372	0.18662	0.12238	0.15961	0.27268	-0.36148	0.008392	0.81696	0.000305	0.036774	-0.64712	-0.000763	0.007477
31.534	0.020599	-0.010529	0.28793	0.017395	0.06546	-0.004578	-0.29068	-0.007019	-0.038147	0.0737	-0.026855	0.063324	0.003967	-0.097656	0.29068	0.042419	0.06485	-0.071259	-0.031433	0.12802	0.33783	0.31189	0.024109	0.13947	-0.28854	0.007324	1.2173	-0.007782	0.16922	-0.43427	-0.002136	0.010376
31.535	0.029144	-0.046844	0.29724	0.011902	0.019379	0.04715	-0.27924	-0.005951	-0.044556	0.071564	0.078125	0.63629	0.003967	-0.042267	0.27802	0.020752	0.059357	-0.13412	-0.57831	-0.02121	0.39581	0.43472	0.03067	0.42801	-0.15396	-0.008698	1.2218	-0.002747	0.44556	-0.23224	-0.006561	0.016632
31.536	0.025635	-0.039978	0.31433	0.007172	-0.001221	0.13351	-0.25497	0.000763	-0.044861	0.07843	0.062866	0.10742	0.007629	-0.015564	0.33951	0.030823	0.054169	-0.10834	0.36819	-0.10361	0.34271	0.38757	0.08728	0.23102	-0.061035	-0.039825	0.098419	-0.002899	0.8049	-0.23743	-0.000458	0.003204
